<?xml version="1.0" encoding="UTF-8"?><svg id="b" xmlns="http://www.w3.org/2000/svg" viewBox="0 0 622.37 168.28"><g id="c"><path d="M20.07,133.66H0V1.39h20.07v132.27Z"/><path d="M45.56,30.94h-8.12v-13h4.79c1.24,0,2.13-.26,2.66-.78.53-.52.8-1.66.8-3.43V1.39h13.98v14.12c0,5.2-1.24,9.07-3.73,11.62-2.49,2.55-5.95,3.82-10.39,3.82Z"/><path d="M228.77,57.21c-2.68-5.82-6.71-10.41-12.07-13.79-5.36-3.38-12.1-5.07-20.21-5.07s-14.16,1.47-19.27,4.41c-5.12,2.94-9.01,6.72-11.69,11.35-2.68,4.63-4.46,9.63-5.33,15.01h-1.31c-.6-4.12-1.69-7.99-3.28-11.63-2.56-5.88-6.46-10.54-11.69-13.98-5.24-3.44-11.91-5.16-20.02-5.16s-14.1,1.44-19.09,4.31c-4.99,2.88-8.77,6.6-11.32,11.16-2.56,4.57-4.27,9.47-5.15,14.73h-1.31v-28.33h-20.02v93.43h21.71v-46.34c0-10,1.9-17.38,5.71-22.14,3.8-4.75,10.57-7.13,20.3-7.13,8.86,0,15.12,1.97,18.81,5.91,3.68,3.94,5.52,10.35,5.52,19.23v50.47h21.71v-46.34c0-10,1.93-17.38,5.8-22.14,3.87-4.75,10.6-7.13,20.21-7.13,8.86,0,15.12,1.97,18.81,5.91,3.68,3.94,5.52,10.35,5.52,19.23v50.47h21.71v-56.66c0-7.38-1.34-13.98-4.02-19.79Z"/><path d="M395.5,83.65c0-30.83-24.04-50.76-61.24-50.76-15.84,0-29.68,3.55-40.04,10.26l-1.24.8v-8.68h-20.37v133h20.37v-45.12l1.24.8c10.53,6.83,24.38,10.45,40.04,10.45,37.2,0,61.24-19.92,61.24-50.76ZM334.26,114.27c-12.31,0-40.94-2.98-40.94-30.62s25.65-30.62,40.94-30.62c12.31,0,40.94,2.98,40.94,30.62,0,9.21-3.99,30.62-40.94,30.62Z"/><path d="M622.26,111.98s.08,0,.11-.03v20.57c-6.99,1.08-14.35,1.96-21.98,1.96-1.49,0-2.99-.06-4.48-.11-11.94-.58-22.58-3.62-30.82-8.79-9.43-5.94-16.48-15.07-20.37-26.45-3.79-10.95-3.76-21.37-3.76-31.4V.96h20.32v66.79c0,9.15-.03,17.03,2.65,24.77,1.66,4.84,5.09,11.53,12,15.87,5.25,3.32,12.49,5.28,20.95,5.69,8.51.39,17.22-.77,25.38-2.1Z"/><path d="M524.33,12.17c0-6.71-4.66-12.17-12.23-12.17s-12.23,5.46-12.23,12.17,4.66,12.17,12.23,12.17,12.23-5.46,12.23-12.17"/><path d="M430.28,124.72v-42.28h.05c1.16-25.84,22.74-29.77,35.75-29.77,10.49,0,34.51,2.96,35.76,29.77h.05v51.49h20.69v-52.5c-1.04-29.57-22.98-48.54-56.5-48.54-14.03,0-26.38,3.26-35.8,9.49V.96h-20.29v132.97h20.29v-9.21Z"/></g></svg>